<mxfile host="Electron" modified="2024-04-22T12:21:35.092Z" agent="Mozilla/5.0 (Windows NT 10.0; Win64; x64) AppleWebKit/537.36 (KHTML, like Gecko) draw.io/24.1.0 Chrome/120.0.6099.109 Electron/28.1.0 Safari/537.36" etag="ugWYmzxLEJ_hbsZ_bHpY" version="24.1.0" type="device">
  <diagram name="Page-1" id="VKkNoMPAgN4xQ-Vmbln4">
    <mxGraphModel dx="864" dy="516" grid="1" gridSize="10" guides="1" tooltips="1" connect="1" arrows="1" fold="1" page="1" pageScale="1" pageWidth="1100" pageHeight="1700" math="0" shadow="0">
      <root>
        <object label="" id="0">
          <mxCell />
        </object>
        <mxCell id="1" parent="0" />
        <mxCell id="YG-Z12xjU9guvom_NeQO-3" value="TV SERIES" style="swimlane;childLayout=stackLayout;horizontal=1;startSize=50;horizontalStack=0;rounded=1;fontSize=14;fontStyle=0;strokeWidth=2;resizeParent=0;resizeLast=1;shadow=0;dashed=0;align=center;arcSize=4;whiteSpace=wrap;html=1;fillColor=#ffe6cc;strokeColor=#d79b00;" parent="1" vertex="1">
          <mxGeometry x="150" y="40" width="240" height="220" as="geometry" />
        </mxCell>
        <mxCell id="YG-Z12xjU9guvom_NeQO-4" value="&lt;font style=&quot;font-size: 20px;&quot;&gt;Series ID(PRIMARY KEY)&lt;br&gt;Series name&lt;br&gt;Genre&lt;br&gt;Release Year&lt;br&gt;Description&lt;br&gt;Number of seasons&lt;/font&gt;" style="align=left;strokeColor=none;fillColor=none;spacingLeft=4;fontSize=12;verticalAlign=top;resizable=0;rotatable=0;part=1;html=1;" parent="YG-Z12xjU9guvom_NeQO-3" vertex="1">
          <mxGeometry y="50" width="240" height="170" as="geometry" />
        </mxCell>
        <mxCell id="YG-Z12xjU9guvom_NeQO-6" value="EPISODES" style="swimlane;childLayout=stackLayout;horizontal=1;startSize=50;horizontalStack=0;rounded=1;fontSize=14;fontStyle=0;strokeWidth=2;resizeParent=0;resizeLast=1;shadow=0;dashed=0;align=center;arcSize=4;whiteSpace=wrap;html=1;fillColor=#f8cecc;strokeColor=#b85450;" parent="1" vertex="1">
          <mxGeometry x="450" y="50" width="230" height="260" as="geometry" />
        </mxCell>
        <mxCell id="YG-Z12xjU9guvom_NeQO-7" value="&lt;font style=&quot;font-size: 15px;&quot;&gt;Episode ID(PRIMARY KEY)&lt;br&gt;Episode name&lt;br&gt;Episode number&lt;br&gt;Duration&lt;br&gt;Plot summary&lt;br&gt;Ratings&lt;br&gt;Guest stars&lt;br&gt;Transmission Date&lt;br&gt;Actor ID&lt;br&gt;Director ID&lt;br&gt;Series ID&lt;/font&gt;" style="align=left;strokeColor=none;fillColor=none;spacingLeft=4;fontSize=12;verticalAlign=top;resizable=0;rotatable=0;part=1;html=1;" parent="YG-Z12xjU9guvom_NeQO-6" vertex="1">
          <mxGeometry y="50" width="230" height="210" as="geometry" />
        </mxCell>
        <mxCell id="YG-Z12xjU9guvom_NeQO-11" value="DIRECTORS" style="swimlane;childLayout=stackLayout;horizontal=1;startSize=50;horizontalStack=0;rounded=1;fontSize=14;fontStyle=0;strokeWidth=2;resizeParent=0;resizeLast=1;shadow=0;dashed=0;align=center;arcSize=4;whiteSpace=wrap;html=1;fillColor=#ffe6cc;strokeColor=#d79b00;" parent="1" vertex="1">
          <mxGeometry x="170" y="430" width="230" height="310" as="geometry" />
        </mxCell>
        <mxCell id="YG-Z12xjU9guvom_NeQO-12" value="&lt;font style=&quot;font-size: 16px;&quot;&gt;Directors ID(PRIMARY KEY)&lt;br&gt;Director&#39;s name&lt;br&gt;Gender&lt;br&gt;Nationality&lt;br&gt;Years of experience&lt;br&gt;Awards won&lt;br&gt;Biography&lt;br&gt;Episode ID&lt;br&gt;Series ID&lt;/font&gt;" style="align=left;strokeColor=none;fillColor=none;spacingLeft=4;fontSize=12;verticalAlign=top;resizable=0;rotatable=0;part=1;html=1;" parent="YG-Z12xjU9guvom_NeQO-11" vertex="1">
          <mxGeometry y="50" width="230" height="260" as="geometry" />
        </mxCell>
        <mxCell id="YG-Z12xjU9guvom_NeQO-16" value="" style="edgeStyle=entityRelationEdgeStyle;fontSize=12;html=1;endArrow=ERoneToMany;startArrow=ERmandOne;rounded=0;entryX=0;entryY=0.148;entryDx=0;entryDy=0;entryPerimeter=0;" parent="1" edge="1" target="YG-Z12xjU9guvom_NeQO-7">
          <mxGeometry width="100" height="100" relative="1" as="geometry">
            <mxPoint x="390" y="130" as="sourcePoint" />
            <mxPoint x="507.44" y="299.61" as="targetPoint" />
            <Array as="points">
              <mxPoint x="317.44" y="130.61" />
              <mxPoint x="470" y="140" />
            </Array>
          </mxGeometry>
        </mxCell>
        <mxCell id="YG-Z12xjU9guvom_NeQO-9" value="ACTOR" style="swimlane;childLayout=stackLayout;horizontal=1;startSize=50;horizontalStack=0;rounded=1;fontSize=14;fontStyle=0;strokeWidth=2;resizeParent=0;resizeLast=1;shadow=0;dashed=0;align=center;arcSize=4;whiteSpace=wrap;html=1;fillColor=#d5e8d4;strokeColor=#82b366;" parent="1" vertex="1">
          <mxGeometry x="780" y="60" width="220" height="280" as="geometry" />
        </mxCell>
        <mxCell id="YG-Z12xjU9guvom_NeQO-10" value="&lt;font style=&quot;font-size: 16px;&quot;&gt;Actor ID(PRIMARY KEY)&lt;br&gt;Actor&#39;s name&lt;br&gt;Gender&lt;br&gt;D.O.B&lt;br&gt;Nationality&lt;br&gt;Height&lt;br&gt;Weight&lt;br&gt;Biography&lt;/font&gt;&lt;div style=&quot;font-size: 16px;&quot;&gt;&lt;font style=&quot;font-size: 16px;&quot;&gt;Episode_id&lt;br&gt;Series ID&lt;/font&gt;&lt;/div&gt;" style="align=left;strokeColor=none;fillColor=none;spacingLeft=4;fontSize=12;verticalAlign=top;resizable=0;rotatable=0;part=1;html=1;" parent="YG-Z12xjU9guvom_NeQO-9" vertex="1">
          <mxGeometry y="50" width="220" height="230" as="geometry" />
        </mxCell>
        <mxCell id="YG-Z12xjU9guvom_NeQO-24" value="" style="edgeStyle=entityRelationEdgeStyle;fontSize=12;html=1;endArrow=ERoneToMany;startArrow=ERzeroToMany;rounded=0;entryX=-0.014;entryY=0.217;entryDx=0;entryDy=0;entryPerimeter=0;exitX=1.004;exitY=0.3;exitDx=0;exitDy=0;exitPerimeter=0;" parent="1" source="YG-Z12xjU9guvom_NeQO-7" target="YG-Z12xjU9guvom_NeQO-10" edge="1">
          <mxGeometry width="100" height="100" relative="1" as="geometry">
            <mxPoint x="690" y="160" as="sourcePoint" />
            <mxPoint x="790.0799999999999" y="140" as="targetPoint" />
          </mxGeometry>
        </mxCell>
        <mxCell id="1w3JbAY_f5RtESQ2giym-1" value="" style="edgeStyle=entityRelationEdgeStyle;fontSize=12;html=1;endArrow=ERzeroToMany;startArrow=ERmandOne;rounded=0;exitX=1.007;exitY=0.347;exitDx=0;exitDy=0;exitPerimeter=0;" parent="1" edge="1">
          <mxGeometry width="100" height="100" relative="1" as="geometry">
            <mxPoint x="400" y="525.9300000000001" as="sourcePoint" />
            <mxPoint x="540" y="310" as="targetPoint" />
            <Array as="points">
              <mxPoint x="478.74" y="450" />
              <mxPoint x="480" y="440" />
            </Array>
          </mxGeometry>
        </mxCell>
        <mxCell id="1w3JbAY_f5RtESQ2giym-5" value="TRANSMISSION" style="swimlane;childLayout=stackLayout;horizontal=1;startSize=50;horizontalStack=0;rounded=1;fontSize=14;fontStyle=0;strokeWidth=2;resizeParent=0;resizeLast=1;shadow=0;dashed=0;align=center;arcSize=4;whiteSpace=wrap;html=1;fillColor=#d5e8d4;strokeColor=#82b366;" parent="1" vertex="1">
          <mxGeometry x="740" y="430" width="210" height="210" as="geometry" />
        </mxCell>
        <mxCell id="1w3JbAY_f5RtESQ2giym-6" value="&lt;font style=&quot;font-size: 15px;&quot;&gt;Transmission_id(primary key)&lt;br&gt;Episode_id&lt;br&gt;Transmission_Date&lt;/font&gt;" style="align=left;strokeColor=none;fillColor=none;spacingLeft=4;fontSize=12;verticalAlign=top;resizable=0;rotatable=0;part=1;html=1;" parent="1w3JbAY_f5RtESQ2giym-5" vertex="1">
          <mxGeometry y="50" width="210" height="160" as="geometry" />
        </mxCell>
        <mxCell id="1w3JbAY_f5RtESQ2giym-7" value="" style="edgeStyle=entityRelationEdgeStyle;fontSize=12;html=1;endArrow=ERoneToMany;startArrow=ERoneToMany;rounded=0;exitX=1.011;exitY=0.064;exitDx=0;exitDy=0;exitPerimeter=0;" parent="1" source="YG-Z12xjU9guvom_NeQO-11" edge="1">
          <mxGeometry width="100" height="100" relative="1" as="geometry">
            <mxPoint x="70" y="330" as="sourcePoint" />
            <mxPoint x="150" y="230" as="targetPoint" />
            <Array as="points">
              <mxPoint x="220" y="280" />
            </Array>
          </mxGeometry>
        </mxCell>
        <mxCell id="1w3JbAY_f5RtESQ2giym-8" value="" style="edgeStyle=entityRelationEdgeStyle;fontSize=12;html=1;endArrow=ERoneToMany;startArrow=ERmandOne;rounded=0;exitX=0.5;exitY=1;exitDx=0;exitDy=0;" parent="1" edge="1" source="YG-Z12xjU9guvom_NeQO-7">
          <mxGeometry width="100" height="100" relative="1" as="geometry">
            <mxPoint x="690" y="460" as="sourcePoint" />
            <mxPoint x="740" y="500" as="targetPoint" />
            <Array as="points">
              <mxPoint x="610" y="350" />
              <mxPoint x="580" y="310" />
              <mxPoint x="680" y="430" />
            </Array>
          </mxGeometry>
        </mxCell>
      </root>
    </mxGraphModel>
  </diagram>
</mxfile>
